# xmcd
#
# Track frame offsets:
#	150
#	13241
#	26897
#	46815
#
# Disc length: 768 seconds
#
# Revision: 0
# Processed by: cddbd v1.5.1PL0 Copyright (c) Steve Scherf et al.
# Submitted via: audiograbber 1.80
#
DISCID=2c02fe04
DTITLE=Bonkan Blues Band - Låtar om och under-livet
DYEAR=1900
DGENRE=
TTITLE0=Varför kliar sig kvinnor...
TTITLE1=Ballhot Blues
TTITLE2=Stans snyggaste kärring
TTITLE3=Gunnar
EXTD=
EXTT0=
EXTT1=
EXTT2=
EXTT3=
PLAYORDER=
